<svg xmlns="http://www.w3.org/2000/svg" viewBox="0 0 38.2 15.5"><path d="M.7 6.8c0-.6.2-1.1.7-1.5s1.1-.6 1.9-.6c.7 0 1.3.1 1.7.4.4.3.8.6 1.1 1.1l-1 .6c-.1-.2-.3-.5-.6-.7s-.7-.2-1.2-.2c-.4 0-.7.1-1 .2-.2.1-.4.4-.4.6 0 .2 0 .3.1.4s.2.2.4.3.3.1.5.2.4.1.7.2c.3 0 .6.1.9.2.3.1.6.2.8.3.2.1.4.3.6.6.2.2.2.6.2 1s-.1.7-.2 1c-.1.3-.3.5-.6.7-.2.2-.5.3-.9.4s-.7.1-1.1.1c-.3 0-.6 0-1-.1l-.9-.3c-.3-.1-.5-.3-.7-.5-.2-.2-.4-.5-.5-.7l1-.6c.2.4.5.7.9.9.4.2.8.2 1.2.2.5 0 .8-.1 1.1-.2.3-.2.4-.4.4-.7 0-.2 0-.3-.1-.4 0-.3-.1-.4-.2-.4-.1-.1-.3-.2-.5-.2-.2-.1-.4-.1-.6-.2-.3 0-.6-.1-.9-.2l-.9-.3c-.3-.1-.4-.4-.6-.7-.2-.2-.3-.5-.3-.9zm12.9-1.9v7h-1.2v-1c-.3.4-.6.7-.9.9-.3.2-.8.3-1.3.3s-.9-.1-1.2-.2c-.3-.2-.6-.4-.8-.6-.2-.3-.4-.6-.4-1-.2-.4-.2-.8-.2-1.3V4.9h1.2V9c0 .3 0 .5.1.8.1.2.1.4.3.6.1.2.3.3.5.4.2.1.5.1.8.1.4 0 .7-.1 1-.2.3-.2.5-.4.6-.6s.3-.6.3-.9c.1-.3.1-.7.1-1.1V4.9h1.1zm4.3.1c.4-.2.8-.3 1.3-.3.4 0 .8.1 1.2.2.3.1.6.4.8.6.2.3.4.6.5 1 .1.4.2.8.2 1.2v4.1h-1.2V7.7c0-.6-.2-1.1-.5-1.4-.4-.3-.7-.4-1.2-.4-.4 0-.7.1-1 .2-.3.1-.5.3-.6.6-.2.2-.3.5-.3.9-.1.3-.1.7-.1 1.1V12h-1.2V5H17v.9c.2-.5.5-.7.9-.9zm8.2 0c.4-.2.8-.3 1.3-.3.4 0 .8.1 1.2.2.3.1.6.4.8.6.2.3.4.6.5 1 .1.4.2.8.2 1.2v4.1h-1.2V7.7c0-.6-.2-1.1-.5-1.4s-.7-.5-1.2-.5c-.4 0-.7.1-1 .2-.3.1-.5.3-.6.6-.2.2-.3.5-.3.9-.1.3-.1.7-.1 1.1v3.3H24v-7h1.2v.9c.2-.4.5-.6.9-.8zm6 9.7l1.7-3.7-3.1-6.1h1.5l2.2 4.7 2.2-4.7H38l-4.5 9.8h-1.4z"/></svg>