<svg version="1.1" id="Layer_1" xmlns="http://www.w3.org/2000/svg" x="0" y="0" viewBox="0 0 400 300" xml:space="preserve"><style>.st1{fill:#ccc}</style><path fill="#f2f2f2" d="M0 0h400v300H0z"/><path class="st1" d="M228 127h-56c-.6 0-1 .4-1 1v44c0 .6.4 1 1 1h56c.6 0 1-.4 1-1v-44c0-.6-.4-1-1-1zm-1 44h-54v-42h54v42z"/><path class="st1" d="M187 149.1c3.1 0 5.6-2.5 5.6-5.6s-2.5-5.6-5.6-5.6c-3.1 0-5.6 2.5-5.6 5.6 0 3.1 2.5 5.6 5.6 5.6zm0-9.1c2 0 3.6 1.6 3.6 3.6s-1.6 3.6-3.6 3.6-3.6-1.6-3.6-3.6 1.6-3.6 3.6-3.6zm-9 27c.2 0 .5-.1.7-.2l16.3-14.4 10.3 10.3c.4.4 1 .5 1.4.1s.5-1 .1-1.4l-.1-.1-4.8-4.8 9.2-10.1 11.3 10.3c.4.4 1 .3 1.4-.1s.3-1-.1-1.4l-12-11c-.2-.2-.4-.3-.7-.3-.3 0-.5.1-.7.3l-9.8 10.7-4.8-4.7c-.4-.4-1-.4-1.4 0l-17 15c-.4.4-.5 1-.1 1.4.3.3.5.4.8.4z"/></svg>